<svg width="234" height="234" viewBox="0 0 234 234" fill="none" xmlns="http://www.w3.org/2000/svg">
<g clip-path="url(#clip0_11_6)">
<circle cx="117" cy="117" r="117" fill="#FCFBFB"/>
<path d="M116.832 112.193C116.367 112.147 115.81 112.147 115.299 112.193C104.246 111.822 95.4689 102.766 95.4689 91.6199C95.4689 80.2418 104.664 71 116.089 71C127.467 71 136.709 80.2418 136.709 91.6199C136.662 102.766 127.885 111.822 116.832 112.193Z" stroke="#1B1534" stroke-width="5" stroke-linecap="round" stroke-linejoin="round"/>
<path d="M93.6097 129.33C82.371 136.854 82.371 149.114 93.6097 156.591C106.381 165.136 127.326 165.136 140.097 156.591C151.336 149.068 151.336 136.807 140.097 129.33C127.372 120.831 106.428 120.831 93.6097 129.33Z" stroke="#1B1534" stroke-width="5" stroke-linecap="round" stroke-linejoin="round"/>
</g>
<defs>
<clipPath id="clip0_11_6">
<rect width="234" height="234" fill="white"/>
</clipPath>
</defs>
</svg>
