<svg width="51" height="50" viewBox="0 0 51 50" fill="none" xmlns="http://www.w3.org/2000/svg">
<g clip-path="url(#clip0_7_26)">
<g filter="url(#filter0_d_7_26)">
<path d="M0 10C0 4.47715 4.47715 0 10 0H40.0476C45.5704 0 50.0476 4.47715 50.0476 10V40C50.0476 45.5228 45.5704 50 40.0476 50H9.99999C4.47715 50 0 45.5228 0 40V10Z" fill="#EFFFF6"/>
</g>
<path d="M13 13V33.4C13 35.392 14.6047 37 16.5927 37H36.9511" stroke="#2FAC67" stroke-width="2" stroke-miterlimit="10" stroke-linecap="round" stroke-linejoin="round"/>
<path d="M16.992 31L22.4315 24.568C23.3321 23.512 24.932 23.44 25.9038 24.436L27.0296 25.576C28.0013 26.56 29.6012 26.5 30.5019 25.444L35.9532 19" stroke="#2FAC67" stroke-width="2" stroke-miterlimit="10" stroke-linecap="round" stroke-linejoin="round"/>
</g>
<defs>
<filter id="filter0_d_7_26" x="-35" y="-19" width="120.048" height="120" filterUnits="userSpaceOnUse" color-interpolation-filters="sRGB">
<feFlood flood-opacity="0" result="BackgroundImageFix"/>
<feColorMatrix in="SourceAlpha" type="matrix" values="0 0 0 0 0 0 0 0 0 0 0 0 0 0 0 0 0 0 127 0" result="hardAlpha"/>
<feOffset dy="16"/>
<feGaussianBlur stdDeviation="17.5"/>
<feColorMatrix type="matrix" values="0 0 0 0 0.184314 0 0 0 0 0.67451 0 0 0 0 0.403922 0 0 0 0.05 0"/>
<feBlend mode="normal" in2="BackgroundImageFix" result="effect1_dropShadow_7_26"/>
<feBlend mode="normal" in="SourceGraphic" in2="effect1_dropShadow_7_26" result="shape"/>
</filter>
<clipPath id="clip0_7_26">
<rect width="50.0476" height="50" fill="white"/>
</clipPath>
</defs>
</svg>
