<svg width="50" height="50" viewBox="0 0 50 50" fill="none" xmlns="http://www.w3.org/2000/svg">
<g clip-path="url(#clip0_1_103)">
<g filter="url(#filter0_d_1_103)">
<path d="M0 10C0 4.47715 4.47715 0 10 0H40C45.5228 0 50 4.47715 50 10V40C50 45.5228 45.5228 50 40 50H10C4.47715 50 0 45.5228 0 40V10Z" fill="#EFFFF6"/>
</g>
<path d="M36.5 24.75C36.5 31.236 31.236 36.5 24.75 36.5C18.264 36.5 13 31.236 13 24.75C13 18.264 18.264 13 24.75 13C31.236 13 36.5 18.264 36.5 24.75Z" stroke="#2FAC67" stroke-width="2" stroke-linecap="round" stroke-linejoin="round"/>
<path d="M24.75 17.7V24.4143" stroke="#2FAC67" stroke-width="2" stroke-linecap="round" stroke-linejoin="round"/>
</g>
<defs>
<filter id="filter0_d_1_103" x="-35" y="-19" width="120" height="120" filterUnits="userSpaceOnUse" color-interpolation-filters="sRGB">
<feFlood flood-opacity="0" result="BackgroundImageFix"/>
<feColorMatrix in="SourceAlpha" type="matrix" values="0 0 0 0 0 0 0 0 0 0 0 0 0 0 0 0 0 0 127 0" result="hardAlpha"/>
<feOffset dy="16"/>
<feGaussianBlur stdDeviation="17.5"/>
<feColorMatrix type="matrix" values="0 0 0 0 0.184314 0 0 0 0 0.67451 0 0 0 0 0.403922 0 0 0 0.05 0"/>
<feBlend mode="normal" in2="BackgroundImageFix" result="effect1_dropShadow_1_103"/>
<feBlend mode="normal" in="SourceGraphic" in2="effect1_dropShadow_1_103" result="shape"/>
</filter>
<clipPath id="clip0_1_103">
<rect width="50" height="50" fill="white"/>
</clipPath>
</defs>
</svg>
